# xmcd
#
# Track frame offsets: 
#        150
#        7180
#        32232
#        57702
#        85375
#        115650
#        141685
#        166302
#        193345
#        205212
#
# Disc length: 3076 seconds
#
# Revision: 0
# Processed by: cddbd v1.5PL3 Copyright (c) Steve Scherf et al.
# Submitted via: ExactAudioCopy v0.95a4
#
DISCID=9b0c020a
DTITLE=Yami to Boushi to Hon no Tabibito - Extra Book 2 'Meikyuu no Yu
DTITLE=kue'
DYEAR=2004
DGENRE=Anime
TTITLE0=Hitomi no Naka no Meikyuu (TV-Size)
TTITLE1=Leila After #1
TTITLE2=Leila After #2
TTITLE3=Leila After #3
TTITLE4=Leila After #4
TTITLE5=Yami to Boushi to Hon no Tabibito Another Story 2 #1
TTITLE6=Yami to Boushi to Hon no Tabibito Another Story 2 #2
TTITLE7=Yami to Boushi to Hon no Tabibito Another Story 2 #3
TTITLE8=Eien no Inori wo Sasagete (TV-Size)
TTITLE9=Yami to Boushi to Hon no Tabibito Extra Story 2
EXTD=
EXTT0=
EXTT1=
EXTT2=
EXTT3=
EXTT4=
EXTT5=
EXTT6=
EXTT7=
EXTT8=
EXTT9=
PLAYORDER=
